<?xml version="1.0" standalone="no"?>
<!DOCTYPE svg PUBLIC "-//W3C//DTD SVG 20010904//EN"
 "http://www.w3.org/TR/2001/REC-SVG-20010904/DTD/svg10.dtd">
<svg version="1.0" xmlns="http://www.w3.org/2000/svg"
 width="180.000000pt" height="180.000000pt" viewBox="0 0 180.000000 180.000000"
 preserveAspectRatio="xMidYMid meet">
<metadata>
Created by potrace 1.14, written by Peter Selinger 2001-2017
</metadata>
<g transform="translate(0.000000,180.000000) scale(0.100000,-0.100000)"
fill="#000000" stroke="none">
<path d="M848 1625 c-1 -1 -28 -6 -59 -9 -90 -10 -148 -24 -166 -39 -7 -5 -13
-7 -13 -3 0 10 -103 -39 -161 -76 -152 -98 -274 -290 -295 -466 -3 -25 -7 -50
-10 -53 -12 -20 -4 -272 11 -349 8 -43 20 -79 36 -115 44 -99 59 -139 59 -151
0 -8 5 -22 10 -32 6 -9 17 -46 24 -82 10 -47 15 -57 16 -35 2 17 4 41 6 55 6
45 5 294 -2 337 l-6 42 54 27 c77 39 136 81 197 141 30 29 56 51 58 49 11 -11
-38 -96 -80 -138 -25 -27 -45 -48 -43 -48 1 0 32 9 67 21 154 50 308 133 398
214 23 21 41 34 41 30 0 -3 -16 -30 -35 -59 -39 -59 -119 -136 -195 -189 -13
-9 -21 -17 -17 -17 13 0 171 62 185 73 6 5 12 7 12 3 0 -9 209 101 247 130 17
13 35 24 38 24 6 0 100 76 135 109 13 13 15 12 18 -9 6 -37 -14 -92 -64 -176
-25 -42 -48 -90 -51 -108 l-6 -31 29 26 c16 15 57 38 92 52 l62 25 1 -32 c0
-17 2 -38 4 -47 1 -9 6 -47 9 -85 4 -39 8 -79 10 -91 9 -46 19 -161 20 -225 1
-60 10 -101 13 -60 1 9 4 29 7 45 3 15 8 39 11 55 4 15 17 74 31 131 14 57 27
111 30 120 2 9 8 36 15 61 34 139 38 173 35 290 -3 127 -19 186 -67 256 -31
46 -29 52 26 73 l30 11 -30 -5 c-16 -3 -40 -8 -52 -10 -22 -5 -23 -2 -24 47
-1 61 -5 87 -14 96 -4 4 -5 -14 -3 -40 3 -27 4 -48 3 -48 -1 0 -14 17 -27 38
-35 52 -74 89 -136 129 -53 34 -164 81 -212 89 -14 3 -31 7 -39 9 -21 8 -227
26 -233 20z"/>
<path d="M480 622 c-23 -8 -30 -23 -30 -73 0 -31 -6 -53 -20 -69 -18 -21 -18
-24 -3 -35 14 -10 20 -42 22 -111 1 -24 51 -54 51 -30 0 7 -6 19 -14 25 -7 6
-14 29 -14 51 0 21 -6 48 -12 59 -7 14 -7 27 -1 40 6 10 11 36 12 57 1 21 9
47 17 56 17 20 13 37 -8 30z"/>
<path d="M1013 619 c-23 -8 -24 -13 -27 -87 -1 -19 -8 -39 -16 -45 -19 -15
-20 -35 -2 -46 8 -4 15 -32 17 -64 3 -64 7 -73 35 -80 24 -6 26 6 5 27 -9 8
-15 33 -15 60 0 26 -6 51 -14 59 -13 13 -13 17 -1 33 8 11 15 39 15 63 0 29 6
48 16 56 24 17 14 34 -13 24z"/>
<path d="M740 610 c0 -6 7 -13 15 -16 10 -4 15 -21 15 -55 0 -27 6 -54 13 -61
11 -10 11 -16 0 -38 -7 -14 -13 -44 -13 -68 0 -29 -5 -45 -15 -48 -15 -6 -21
-34 -7 -34 26 1 42 31 46 84 3 41 9 61 23 71 17 13 17 14 0 27 -14 10 -20 30
-22 71 -2 31 -7 61 -10 67 -8 13 -45 13 -45 0z"/>
<path d="M1277 613 c-4 -3 1 -12 10 -18 11 -8 18 -29 19 -59 2 -26 8 -54 15
-62 8 -10 8 -18 1 -27 -6 -7 -13 -35 -16 -62 -2 -28 -5 -53 -5 -57 -1 -5 -4
-7 -8 -5 -5 1 -9 -3 -11 -8 -5 -16 30 -19 39 -3 5 7 9 33 9 58 0 25 7 56 16
68 14 20 14 24 0 44 -9 12 -16 41 -16 64 0 23 -3 49 -6 58 -6 16 -35 22 -47 9z"/>
<path d="M879 531 c0 -17 -1 -56 -1 -86 0 -86 1 -97 10 -91 11 7 12 195 1 201
-5 4 -9 -8 -10 -24z"/>
<path d="M593 512 c-23 -15 -31 -55 -17 -83 23 -46 65 -45 89 0 16 33 10 72
-11 64 -8 -3 -14 1 -14 11 0 17 -26 21 -47 8z"/>
<path d="M1115 497 c-17 -26 -13 -62 11 -88 13 -14 21 -16 42 -8 33 13 42 26
42 62 0 16 -5 27 -14 27 -8 0 -16 7 -20 15 -8 23 -44 18 -61 -8z"/>
</g>
</svg>
